<?xml version="1.0" encoding="iso-8859-1"?>
<!-- Uploaded to: SVG Repo, www.svgrepo.com, Generator: SVG Repo Mixer Tools -->
<svg fill="#000000" height="800px" width="800px" version="1.1" id="Layer_1" xmlns="http://www.w3.org/2000/svg" xmlns:xlink="http://www.w3.org/1999/xlink" 
	 viewBox="0 0 512 512" xml:space="preserve">
<g>
	<g>
		<path d="M421.294,100.392H311.216v-90.01C311.216,4.838,306.368,0,300.824,0h-90.353c-5.544,0-9.686,4.838-9.686,10.382v90.01H90
			c-5.544,0-9.686,4.838-9.686,10.382v90.353c0,5.544,4.142,9.696,9.686,9.696h110.784v291.48c0,5.544,4.142,9.696,9.686,9.696
			h90.353c5.544,0,10.392-4.152,10.392-9.696v-291.48h110.078c5.544,0,10.392-4.152,10.392-9.696v-90.353
			C431.686,105.23,426.838,100.392,421.294,100.392z M200.784,190.745H100.392v-70.275h100.392V190.745z M291.137,491.922h-70.275
			V210.824h70.275V491.922z M291.137,190.745h-70.275v-70.275h70.275V190.745z M291.137,100.392h-70.275V20.078h70.275V100.392z
			 M411.608,190.745H311.216v-70.275h100.392V190.745z"/>
	</g>
</g>
</svg>